<?xml version="1.0" encoding="UTF-8"?>
<svg width="32" height="32" viewBox="0 0 32 32" xmlns="http://www.w3.org/2000/svg">
  <defs>
    <linearGradient id="bg" x1="0%" y1="0%" x2="100%" y2="100%">
      <stop offset="0%" style="stop-color:#007AFF;stop-opacity:1" />
      <stop offset="100%" style="stop-color:#00C7BE;stop-opacity:1" />
    </linearGradient>
  </defs>
  <rect width="32" height="32" fill="url(#bg)" />
  <path transform="translate(8,8) scale(0.15)" d="M54 0c-141.4 0-256 114.6-256 256v192c0 35.3 28.7 64 64 64h384c35.3 0 64-28.7 64-64V256c0-141.4-114.6-256-256-256zM-106 256c0-88.4 71.6-160 160-160s160 71.6 160 160v192H-106V256zm80 256c-26.5 0-48 21.5-48 48s21.5 48 48 48 48-21.5 48-48-21.5-48-48-48zm160 0c-26.5 0-48 21.5-48 48s21.5 48 48 48 48-21.5 48-48-21.5-48-48-48z" fill="white"/>
</svg> 