<?xml version="1.0" encoding="UTF-8"?>
<svg width="1242" height="2436" viewBox="0 0 1242 2436" xmlns="http://www.w3.org/2000/svg">
  <defs>
    <linearGradient id="bg" x1="0%" y1="0%" x2="100%" y2="100%">
      <stop offset="0%" style="stop-color:#007AFF;stop-opacity:1" />
      <stop offset="100%" style="stop-color:#00C7BE;stop-opacity:1" />
    </linearGradient>
  </defs>
  <rect width="1242" height="2436" fill="url(#bg)" />
  <g transform="translate(421,1018)">
    <path d="M200 0c-141.4 0-256 114.6-256 256v192c0 35.3 28.7 64 64 64h384c35.3 0 64-28.7 64-64V256c0-141.4-114.6-256-256-256zM40 256c0-88.4 71.6-160 160-160s160 71.6 160 160v192H40V256zm80 256c-26.5 0-48 21.5-48 48s21.5 48 48 48 48-21.5 48-48-21.5-48-48-48zm160 0c-26.5 0-48 21.5-48 48s21.5 48 48 48 48-21.5 48-48-21.5-48-48-48z" fill="white"/>
    <text x="200" y="500" text-anchor="middle" font-family="Arial" font-size="48" fill="white">Japan Tour App</text>
  </g>
</svg> 